<?xml version="1.0" encoding="UTF-8"?>
<svg version="1.1" xmlns="http://www.w3.org/2000/svg" width="512" height="512">
<path d="M0 0 C1.1351152 -0.0071553 2.27023041 -0.01431061 3.43974304 -0.02168274 C4.6812764 -0.02437164 5.92280975 -0.02706055 7.20196533 -0.02983093 C8.51308792 -0.03640213 9.82421051 -0.04297333 11.17506409 -0.04974365 C15.52418806 -0.07075733 19.87331223 -0.08115147 24.22247314 -0.09111023 C25.72532418 -0.09516041 27.22817503 -0.09927741 28.7310257 -0.10346031 C35.80142177 -0.12251521 42.87180746 -0.1367391 49.94222426 -0.14507228 C58.06914067 -0.1548112 66.19578228 -0.18104121 74.32260203 -0.22157317 C80.62351974 -0.25190448 86.92435952 -0.2665576 93.22534871 -0.26985329 C96.97846895 -0.27218675 100.73129582 -0.28091979 104.48433685 -0.30631447 C129.78161023 -0.46852146 147.99936269 1.55251931 168.42559814 17.64717102 C170.25404099 19.06380686 172.08349058 20.47914414 173.91387939 21.89326477 C174.82863037 22.60208801 175.74338135 23.31091125 176.68585205 24.04121399 C183.20057524 29.0488777 189.84052143 33.88922681 196.48272705 38.7257843 C198.12256024 39.92547126 199.7501341 41.14188875 201.37481689 42.36201477 C212.22368253 50.34580156 224.17334036 55.47955804 237.70983887 55.40545654 C238.50450019 55.40913225 239.29916151 55.41280795 240.11790347 55.41659504 C242.75992319 55.42651275 245.40172984 55.42243669 248.04376221 55.41841125 C249.9466321 55.42280196 251.84950007 55.42810538 253.75236511 55.43424988 C257.84087549 55.4457252 261.9293342 55.45120749 266.01786041 55.45213127 C272.4907957 55.45407731 278.9636247 55.47216042 285.43652344 55.4928894 C301.51543253 55.54200704 317.59437045 55.57293354 333.67333984 55.5941925 C346.1691016 55.61073959 358.66477198 55.6336226 371.16047263 55.67721325 C377.58657632 55.69892056 384.01250613 55.70705389 390.43864393 55.70482051 C394.4479374 55.70649468 398.45711862 55.72058882 402.46637154 55.73803329 C404.31577038 55.74360278 406.16519279 55.74414593 408.01459312 55.73909569 C434.44419444 55.67452818 434.44419444 55.67452818 444.42559814 65.14717102 C453.1657337 74.13008812 452.98710095 84.5685902 452.87969971 96.32514954 C452.87857006 98.06044488 452.87920737 99.79574214 452.88146973 101.53103638 C452.88261324 106.2206059 452.85916292 110.90976276 452.8311739 115.59923673 C452.80609954 120.50792911 452.80381349 125.41663187 452.79907227 130.32537842 C452.78666019 139.61123615 452.75386256 148.89690459 452.71367431 158.18267912 C452.66890149 168.75823422 452.64695571 179.33379855 452.62689257 189.9094249 C452.58512834 211.65544576 452.51481074 233.40129644 452.42559814 255.14717102 C453.72755127 255.11236633 455.02950439 255.07756165 456.37091064 255.04170227 C458.09746018 255.01355201 459.82402375 254.98625318 461.55059814 254.95967102 C462.40653564 254.9345343 463.26247314 254.90939758 464.14434814 254.88349915 C469.35100241 254.82342237 472.92932418 255.21451629 477.42559814 258.14717102 C481.41224831 262.5648104 482.54803201 264.99665138 482.6026001 270.87861633 C482.61543533 272.08036499 482.62827057 273.28211365 482.64149475 274.52027893 C482.65257515 276.47801239 482.65257515 276.47801239 482.66387939 278.47529602 C482.66999269 279.4707909 482.66999269 279.4707909 482.67622948 280.48639679 C482.69709211 284.00108529 482.71139129 287.51573477 482.72076416 291.0304718 C482.73181179 294.65318278 482.76619089 298.27527665 482.80593586 301.89776993 C482.83214257 304.68941859 482.84045966 307.48092135 482.84404564 310.27268219 C482.85125871 312.25463622 482.87768345 314.23649036 482.9044342 316.21827698 C482.87752308 327.38866247 482.87752308 327.38866247 478.42559814 332.14717102 C474.79721408 335.33575095 471.75841389 336.27692146 466.97637939 336.24482727 C466.1288208 336.24160461 465.28126221 336.23838196 464.40802002 336.23506165 C463.5269458 336.22668274 462.64587158 336.21830383 461.73809814 336.20967102 C460.84542236 336.2051593 459.95274658 336.20064758 459.03302002 336.19599915 C456.83047828 336.18422085 454.62807215 336.16777266 452.42559814 336.14717102 C452.43448059 336.83906525 452.44336304 337.53095947 452.45251465 338.24382019 C452.53307727 344.80402545 452.59377217 351.36409016 452.63284683 357.92468071 C452.65361191 361.29658704 452.68172203 364.6680804 452.72735596 368.03974915 C452.77616477 371.92722755 452.79863458 375.81412837 452.81622314 379.70185852 C452.83686829 380.89705109 452.85751343 382.09224365 452.87878418 383.32365417 C452.88102758 391.79181714 451.57853906 398.76219857 446.56622314 405.73310852 C438.74070319 413.13824931 431.97237487 416.26667797 421.18340111 416.2813921 C420.08184072 416.28492044 420.08184072 416.28492044 418.95802659 416.28852007 C416.48385395 416.29520582 414.00973389 416.29475197 411.53555298 416.29434204 C409.74906351 416.29764093 407.96257479 416.30136655 406.17608702 416.30548352 C401.2561464 416.31550878 396.33621798 416.31922116 391.41626859 416.32187283 C386.114116 416.3257743 380.81197308 416.33535273 375.50982666 416.34408569 C362.70006427 416.3638542 349.89030108 416.37391666 337.08052725 416.38281348 C331.04984545 416.38719562 325.01916453 416.39256261 318.98848343 416.39780235 C298.94414896 416.41481477 278.89981505 416.42930941 258.85547447 416.43655109 C253.65310032 416.43846102 248.45072618 416.44038135 243.24835205 416.44233704 C241.3087895 416.44306265 241.3087895 416.44306265 239.33004387 416.44380292 C218.37901425 416.45210496 197.42804169 416.47744479 176.477037 416.50991771 C154.97272494 416.54297682 133.4684419 416.56099881 111.96410429 416.56419533 C99.88792293 416.56636146 87.8118248 416.57512515 75.73566818 416.60065651 C65.45204098 416.62234776 55.16851722 416.63042164 44.88486974 416.62068973 C39.63808183 416.61614054 34.39150741 416.6180674 29.14474869 416.63745117 C24.33933153 416.65505111 19.53428411 416.65411076 14.72886319 416.63855388 C12.99260726 416.63617301 11.25632594 416.64052619 9.52010886 416.65238253 C-2.67347347 416.73047715 -12.57357683 415.78117129 -21.81658936 407.08076477 C-27.53053886 400.79542032 -29.69510665 395.34593563 -29.70862293 386.9044857 C-29.71308078 385.61383213 -29.71753862 384.32317857 -29.72213155 382.99341428 C-29.72204225 381.55788063 -29.72185241 380.12234698 -29.72157288 378.68681335 C-29.72487232 377.16431097 -29.72859806 375.64180946 -29.73271435 374.11930907 C-29.74273332 369.92906897 -29.74645098 365.73884319 -29.74910367 361.54859281 C-29.75300701 357.03172271 -29.76258532 352.51486396 -29.77131653 347.9980011 C-29.79107989 337.08666165 -29.80114691 326.17532128 -29.81004432 315.26396841 C-29.81442736 310.1258799 -29.81979412 304.98779243 -29.82503319 299.84970474 C-29.84204521 282.77005159 -29.85653953 265.69039908 -29.86378193 248.61073875 C-29.86569183 244.17838414 -29.86761216 239.74602952 -29.86956787 235.31367493 C-29.87005161 234.21203257 -29.87053535 233.11039022 -29.87103375 231.97536476 C-29.8793346 214.12826308 -29.90467257 196.28122841 -29.93714855 178.43415599 C-29.97021736 160.11195865 -29.98823052 141.78979538 -29.99142617 123.46756804 C-29.99359141 113.17990376 -30.00234218 102.8923372 -30.02788734 92.604702 C-30.04959186 83.84353854 -30.05764596 75.08249655 -30.04792056 66.32130925 C-30.04337518 61.85220957 -30.04527595 57.38336052 -30.06468201 52.9142952 C-30.08230944 48.81941943 -30.0813195 44.72497722 -30.06578472 40.63009687 C-30.063408 39.15225028 -30.06773556 37.67437371 -30.07961337 36.19657294 C-30.15212836 26.57505948 -29.45127628 18.53895856 -23.71502686 10.56123352 C-16.60210194 3.83040787 -9.90720427 0.04294738 0 0 Z M452.42559814 271.14717102 C452.42559814 287.31717102 452.42559814 303.48717102 452.42559814 320.14717102 C457.99554548 319.21884646 460.96287583 318.45702477 464.42559814 314.14717102 C467.28692076 308.13679502 467.89707071 302.21802462 467.80059814 295.64717102 C467.81219971 294.85697571 467.82380127 294.0667804 467.83575439 293.25263977 C467.80573356 287.13839589 467.06887169 280.43710344 463.11529541 275.51631165 C459.49942599 272.2207167 457.47786452 271.98921542 452.42559814 271.14717102 Z " fill="#FED86B" transform="translate(29.57440185546875,47.85282897949219)"/>
<path d="M0 0 C1.1938179 -0.00287018 2.3876358 -0.00574036 3.61763 -0.00869751 C6.12798541 -0.01072978 8.63835695 -0.00525886 11.14868164 0.00732422 C14.98685023 0.02343149 18.82397262 0.00742408 22.66210938 -0.01171875 C25.10807523 -0.009737 27.55404044 -0.00589475 30 0 C31.14385666 -0.00607269 32.28771332 -0.01214539 33.4662323 -0.0184021 C39.11930529 0.03148241 43.48232312 0.08181715 48.30078125 3.3984375 C52.28743142 7.81607687 53.42321512 10.24791786 53.4777832 16.12988281 C53.49061844 17.33163147 53.50345367 18.53338013 53.51667786 19.77154541 C53.52775826 21.72927887 53.52775826 21.72927887 53.5390625 23.7265625 C53.54313803 24.39022575 53.54721355 25.05388901 53.55141258 25.73766327 C53.57227522 29.25235177 53.5865744 32.76700125 53.59594727 36.28173828 C53.6069949 39.90444926 53.641374 43.52654312 53.68111897 47.14903641 C53.70732568 49.94068507 53.71564276 52.73218783 53.71922874 55.52394867 C53.72644182 57.5059027 53.75286656 59.48775684 53.77961731 61.46954346 C53.75270619 72.63992895 53.75270619 72.63992895 49.30078125 77.3984375 C45.67239719 80.58701743 42.633597 81.52818794 37.8515625 81.49609375 C37.00400391 81.49287109 36.15644531 81.48964844 35.28320312 81.48632812 C33.9615918 81.47375977 33.9615918 81.47375977 32.61328125 81.4609375 C31.72060547 81.45642578 30.82792969 81.45191406 29.90820312 81.44726562 C27.70566138 81.43548733 25.50325526 81.41903914 23.30078125 81.3984375 C23.3096637 82.09033173 23.31854614 82.78222595 23.32769775 83.49508667 C23.40826038 90.05529193 23.46895528 96.61535664 23.50802994 103.17594719 C23.52879501 106.54785352 23.55690514 109.91934688 23.60253906 113.29101562 C23.65134788 117.17849403 23.67381768 121.06539485 23.69140625 124.953125 C23.71205139 126.14831757 23.73269653 127.34351013 23.75396729 128.57492065 C23.75621069 137.04308362 22.45372216 144.01346505 17.44140625 150.984375 C9.61588629 158.38951579 2.84755797 161.51794445 -7.94141579 161.53265858 C-9.04297617 161.53618692 -9.04297617 161.53618692 -10.16679031 161.53978655 C-12.64096294 161.5464723 -15.11508301 161.54601845 -17.58926392 161.54560852 C-19.37575338 161.54890741 -21.1622421 161.55263303 -22.94872987 161.55675 C-27.8686705 161.56677526 -32.78859892 161.57048764 -37.70854831 161.57313931 C-43.0107009 161.57704078 -48.31284381 161.58661921 -53.61499023 161.59535217 C-66.42475263 161.61512068 -79.23451581 161.62518314 -92.04428965 161.63407996 C-98.07497145 161.6384621 -104.10565236 161.64382909 -110.13633347 161.64906883 C-130.18066793 161.66608125 -150.22500185 161.68057589 -170.26934242 161.68781757 C-175.47171657 161.6897275 -180.67409071 161.69164783 -185.87646484 161.69360352 C-187.81602739 161.69432913 -187.81602739 161.69432913 -189.79477303 161.6950694 C-210.74580265 161.70337144 -231.6967752 161.72871127 -252.6477799 161.76118419 C-274.15209195 161.7942433 -295.656375 161.81226528 -317.1607126 161.81546181 C-329.23689396 161.81762794 -341.3129921 161.82639163 -353.38914871 161.85192299 C-363.67277591 161.87361424 -373.95629967 161.88168812 -384.23994716 161.87195621 C-389.48673506 161.86740702 -394.73330948 161.86933388 -399.98006821 161.88871765 C-404.78548537 161.90631759 -409.59053279 161.90537724 -414.3959537 161.88982036 C-416.13220963 161.88743949 -417.86849095 161.89179267 -419.60470803 161.90364901 C-431.79829037 161.98174363 -441.69839373 161.03243777 -450.94140625 152.33203125 C-456.2994806 146.43814947 -458.82734026 141.05740338 -458.81947327 133.0960083 C-458.82084793 132.02191208 -458.8222226 130.94781586 -458.82363892 129.84117126 C-458.82004364 128.66800858 -458.81644836 127.49484589 -458.81274414 126.28613281 C-458.81289017 125.04684525 -458.81303619 123.80755768 -458.81318665 122.53071594 C-458.81260951 119.13640908 -458.80759546 115.7421631 -458.80061269 112.34786701 C-458.79435987 108.79911287 -458.79377382 105.25035792 -458.79258728 101.70159912 C-458.78947966 94.98331552 -458.78127393 88.2650482 -458.77123779 81.54677176 C-458.760059 73.89749185 -458.75456175 66.24821116 -458.74954236 58.59892511 C-458.73909085 42.86541956 -458.72130088 27.13193127 -458.69921875 11.3984375 C-452.09921875 11.3984375 -445.49921875 11.3984375 -438.69921875 11.3984375 C-438.69921875 17.6684375 -438.69921875 23.9384375 -438.69921875 30.3984375 C-432.09921875 30.3984375 -425.49921875 30.3984375 -418.69921875 30.3984375 C-418.69921875 24.1284375 -418.69921875 17.8584375 -418.69921875 11.3984375 C-412.09921875 11.3984375 -405.49921875 11.3984375 -398.69921875 11.3984375 C-398.69921875 17.6684375 -398.69921875 23.9384375 -398.69921875 30.3984375 C-392.09921875 30.3984375 -385.49921875 30.3984375 -378.69921875 30.3984375 C-378.69921875 24.1284375 -378.69921875 17.8584375 -378.69921875 11.3984375 C-372.09921875 11.3984375 -365.49921875 11.3984375 -358.69921875 11.3984375 C-358.69921875 17.6684375 -358.69921875 23.9384375 -358.69921875 30.3984375 C-352.09921875 30.3984375 -345.49921875 30.3984375 -338.69921875 30.3984375 C-338.69921875 24.1284375 -338.69921875 17.8584375 -338.69921875 11.3984375 C-332.09921875 11.3984375 -325.49921875 11.3984375 -318.69921875 11.3984375 C-318.69921875 17.6684375 -318.69921875 23.9384375 -318.69921875 30.3984375 C-312.09921875 30.3984375 -305.49921875 30.3984375 -298.69921875 30.3984375 C-298.73879644 24.51960747 -298.73879644 24.51960747 -298.78930664 18.64086914 C-298.79305298 17.54826782 -298.79305298 17.54826782 -298.796875 16.43359375 C-298.80211182 15.684729 -298.80734863 14.93586426 -298.81274414 14.16430664 C-298.69921875 12.3984375 -298.69921875 12.3984375 -297.69921875 11.3984375 C-296.28351752 11.31192139 -294.86362375 11.29138846 -293.4453125 11.30078125 C-292.67630615 11.30327881 -291.9072998 11.30577637 -291.11499023 11.30834961 C-290.13216064 11.31745361 -289.14933105 11.32655762 -288.13671875 11.3359375 C-283.46515625 11.366875 -283.46515625 11.366875 -278.69921875 11.3984375 C-278.69921875 17.6684375 -278.69921875 23.9384375 -278.69921875 30.3984375 C-272.09921875 30.3984375 -265.49921875 30.3984375 -258.69921875 30.3984375 C-258.73879644 24.51960747 -258.73879644 24.51960747 -258.78930664 18.64086914 C-258.79305298 17.54826782 -258.79305298 17.54826782 -258.796875 16.43359375 C-258.80211182 15.684729 -258.80734863 14.93586426 -258.81274414 14.16430664 C-258.69921875 12.3984375 -258.69921875 12.3984375 -257.69921875 11.3984375 C-256.28351752 11.31192139 -254.86362375 11.29138846 -253.4453125 11.30078125 C-252.67630615 11.30327881 -251.9072998 11.30577637 -251.11499023 11.30834961 C-250.13216064 11.31745361 -249.14933105 11.32655762 -248.13671875 11.3359375 C-243.46515625 11.366875 -243.46515625 11.366875 -238.69921875 11.3984375 C-238.69921875 17.6684375 -238.69921875 23.9384375 -238.69921875 30.3984375 C-232.09921875 30.3984375 -225.49921875 30.3984375 -218.69921875 30.3984375 C-218.73879644 24.51960747 -218.73879644 24.51960747 -218.78930664 18.64086914 C-218.79305298 17.54826782 -218.79305298 17.54826782 -218.796875 16.43359375 C-218.80211182 15.684729 -218.80734863 14.93586426 -218.81274414 14.16430664 C-218.69921875 12.3984375 -218.69921875 12.3984375 -217.69921875 11.3984375 C-216.28351752 11.31192139 -214.86362375 11.29138846 -213.4453125 11.30078125 C-212.67630615 11.30327881 -211.9072998 11.30577637 -211.11499023 11.30834961 C-210.13216064 11.31745361 -209.14933105 11.32655762 -208.13671875 11.3359375 C-203.46515625 11.366875 -203.46515625 11.366875 -198.69921875 11.3984375 C-198.69921875 17.6684375 -198.69921875 23.9384375 -198.69921875 30.3984375 C-192.09921875 30.3984375 -185.49921875 30.3984375 -178.69921875 30.3984375 C-178.73879644 24.51960747 -178.73879644 24.51960747 -178.78930664 18.64086914 C-178.79305298 17.54826782 -178.79305298 17.54826782 -178.796875 16.43359375 C-178.80473022 15.31029663 -178.80473022 15.31029663 -178.81274414 14.16430664 C-178.69921875 12.3984375 -178.69921875 12.3984375 -177.69921875 11.3984375 C-176.28351752 11.31192139 -174.86362375 11.29138846 -173.4453125 11.30078125 C-172.29180298 11.30452759 -172.29180298 11.30452759 -171.11499023 11.30834961 C-170.13216064 11.31745361 -169.14933105 11.32655762 -168.13671875 11.3359375 C-163.46515625 11.366875 -163.46515625 11.366875 -158.69921875 11.3984375 C-158.69921875 17.6684375 -158.69921875 23.9384375 -158.69921875 30.3984375 C-152.09921875 30.3984375 -145.49921875 30.3984375 -138.69921875 30.3984375 C-138.69921875 23.7984375 -138.69921875 17.1984375 -138.69921875 10.3984375 C-132.09921875 10.3984375 -125.49921875 10.3984375 -118.69921875 10.3984375 C-118.69921875 16.9984375 -118.69921875 23.5984375 -118.69921875 30.3984375 C-112.09921875 30.3984375 -105.49921875 30.3984375 -98.69921875 30.3984375 C-98.73879644 24.51960747 -98.73879644 24.51960747 -98.78930664 18.64086914 C-98.79305298 17.54826782 -98.79305298 17.54826782 -98.796875 16.43359375 C-98.80473022 15.31029663 -98.80473022 15.31029663 -98.81274414 14.16430664 C-98.69921875 12.3984375 -98.69921875 12.3984375 -97.69921875 11.3984375 C-96.28351752 11.31192139 -94.86362375 11.29138846 -93.4453125 11.30078125 C-92.16430664 11.30561523 -92.16430664 11.30561523 -90.85742188 11.31054688 C-89.95958984 11.31892578 -89.06175781 11.32730469 -88.13671875 11.3359375 C-87.23501953 11.34044922 -86.33332031 11.34496094 -85.40429688 11.34960938 C-83.16924286 11.36143506 -80.93422273 11.37937112 -78.69921875 11.3984375 C-78.36921875 16.0184375 -78.03921875 20.6384375 -77.69921875 25.3984375 C-76.58546875 23.7896875 -76.58546875 23.7896875 -75.44921875 22.1484375 C-71.11767036 17.15512478 -65.9160282 16.05849364 -59.69921875 14.3984375 C-58.23378438 13.98516151 -56.76897275 13.56967294 -55.3046875 13.15234375 C-49.6881635 11.56199123 -44.05649155 10.02984986 -38.41796875 8.51953125 C-32.1101856 6.82741526 -25.81192325 5.06231803 -19.74967957 2.60971069 C-13.16479869 0.07941314 -6.99537475 -0.0373364 0 0 Z M23.30078125 16.3984375 C23.30078125 32.5684375 23.30078125 48.7384375 23.30078125 65.3984375 C28.87072859 64.47011294 31.83805894 63.70829125 35.30078125 59.3984375 C38.16210387 53.3880615 38.77225382 47.4692911 38.67578125 40.8984375 C38.68738281 40.10824219 38.69898438 39.31804687 38.7109375 38.50390625 C38.68091666 32.38966237 37.9440548 25.68836992 33.99047852 20.76757812 C30.3746091 17.47198318 28.35304763 17.2404819 23.30078125 16.3984375 Z " fill="#FED050" transform="translate(458.69921875,302.6015625)"/>
<path d="M0 0 C1.1351152 -0.0071553 2.27023041 -0.01431061 3.43974304 -0.02168274 C4.6812764 -0.02437164 5.92280975 -0.02706055 7.20196533 -0.02983093 C8.51308792 -0.03640213 9.82421051 -0.04297333 11.17506409 -0.04974365 C15.52418806 -0.07075733 19.87331223 -0.08115147 24.22247314 -0.09111023 C25.72532418 -0.09516041 27.22817503 -0.09927741 28.7310257 -0.10346031 C35.80142177 -0.12251521 42.87180746 -0.1367391 49.94222426 -0.14507228 C58.06914067 -0.1548112 66.19578228 -0.18104121 74.32260203 -0.22157317 C80.62351974 -0.25190448 86.92435952 -0.2665576 93.22534871 -0.26985329 C96.97846895 -0.27218675 100.73129582 -0.28091979 104.48433685 -0.30631447 C129.78161023 -0.46852146 147.99936269 1.55251931 168.42559814 17.64717102 C170.25404099 19.06380686 172.08349058 20.47914414 173.91387939 21.89326477 C174.82863037 22.60208801 175.74338135 23.31091125 176.68585205 24.04121399 C183.20057524 29.0488777 189.84052143 33.88922681 196.48272705 38.7257843 C198.12256024 39.92547126 199.7501341 41.14188875 201.37481689 42.36201477 C212.22368253 50.34580156 224.17334036 55.47955804 237.70983887 55.40545654 C238.50450019 55.40913225 239.29916151 55.41280795 240.11790347 55.41659504 C242.75992319 55.42651275 245.40172984 55.42243669 248.04376221 55.41841125 C249.9466321 55.42280196 251.84950007 55.42810538 253.75236511 55.43424988 C257.84087549 55.4457252 261.9293342 55.45120749 266.01786041 55.45213127 C272.4907957 55.45407731 278.9636247 55.47216042 285.43652344 55.4928894 C301.51543253 55.54200704 317.59437045 55.57293354 333.67333984 55.5941925 C346.1691016 55.61073959 358.66477198 55.6336226 371.16047263 55.67721325 C377.58657632 55.69892056 384.01250613 55.70705389 390.43864393 55.70482051 C394.4479374 55.70649468 398.45711862 55.72058882 402.46637154 55.73803329 C404.31577038 55.74360278 406.16519279 55.74414593 408.01459312 55.73909569 C434.44419444 55.67452818 434.44419444 55.67452818 444.42559814 65.14717102 C446.67559814 67.45967102 446.67559814 67.45967102 448.42559814 70.14717102 C448.93652008 70.91274574 448.93652008 70.91274574 449.45776367 71.69378662 C454.03127924 79.9664302 452.92254593 89.46934264 452.81622314 98.61982727 C452.80875308 100.51267903 452.80306377 102.40553858 452.79907227 104.29840088 C452.78387615 109.25512944 452.74464687 114.21138137 452.70025635 119.16792297 C452.65917307 124.23580988 452.64103347 129.30377459 452.62091064 134.3717804 C452.57814628 144.29711881 452.50996869 154.22210512 452.42559814 164.14717102 C452.09559814 164.14717102 451.76559814 164.14717102 451.42559814 164.14717102 C451.21934814 162.84779602 451.01309814 161.54842102 450.80059814 160.20967102 C449.01019042 152.20327027 444.20485454 145.66667528 437.42559814 141.14717102 C430.01239115 137.66152447 422.42275669 137.60963809 414.36309814 137.45967102 C413.11593018 137.42551086 411.86876221 137.39135071 410.58380127 137.3561554 C407.53115687 137.27428371 404.47877781 137.20493474 401.42559814 137.14717102 C401.41157959 135.38457947 401.41157959 135.38457947 401.39727783 133.58638 C401.35724479 129.20449153 401.29144941 124.82329534 401.21807861 120.44184875 C401.18994599 118.54968698 401.16869326 116.65740938 401.15460205 114.76509094 C401.13306528 112.03638232 401.08636145 109.30905511 401.03497314 106.58076477 C401.03313019 105.32253151 401.03313019 105.32253151 401.03125 104.03887939 C400.8896844 98.29328972 399.9193383 94.7786032 396.42559814 90.14717102 C392.29248379 87.6556527 389.21075986 86.77167804 384.40978241 86.76685429 C383.22066521 86.75841435 382.03154801 86.7499744 380.80639696 86.74127871 C379.50893526 86.74728875 378.21147355 86.7532988 376.87469482 86.75949097 C375.47548098 86.75531668 374.07627051 86.74983864 372.67706633 86.74317116 C368.83700503 86.72871033 364.99715825 86.73296319 361.15708518 86.74033797 C357.01386735 86.74506572 352.87069619 86.73256334 348.72749329 86.72232056 C340.6128817 86.70512008 332.49834751 86.70429505 324.38372242 86.70953346 C317.78922879 86.71357371 311.19475804 86.71213334 304.6002655 86.7067852 C303.66196332 86.70603678 302.72366114 86.70528836 301.75692555 86.70451726 C299.85082614 86.7029858 297.94472673 86.70144745 296.03862733 86.69990229 C278.16206984 86.68617298 260.28555611 86.69161819 242.40899962 86.7030875 C226.04984577 86.71302259 209.69080497 86.7000752 193.33166856 86.67615331 C176.53719355 86.65177965 159.74277125 86.64215003 142.9482789 86.64880604 C133.51815407 86.65230183 124.08811624 86.65004238 114.65800476 86.63255501 C106.63127543 86.61785479 98.60469436 86.61716908 90.577968 86.63462592 C86.48200114 86.64315592 82.38629938 86.64523691 78.29034615 86.62997437 C74.54114066 86.61617668 70.79242862 86.62082634 67.04325205 86.6402136 C65.0437604 86.64577839 63.04424394 86.63166123 61.04479933 86.6168595 C52.42836841 86.66320109 52.42836841 86.66320109 45.42559814 91.14717102 C41.68622666 95.53126173 41.73701489 100.61683924 41.42559814 106.14717102 C40.77333252 106.17295227 40.12106689 106.19873352 39.44903564 106.22529602 C33.71286994 106.59755456 29.89684111 107.22120158 25.42559814 111.14717102 C21.63628648 115.82431658 21.88051 120.70216335 21.73809814 126.45967102 C21.70393799 127.39101868 21.66977783 128.32236633 21.63458252 129.28193665 C21.55243874 131.57022774 21.48318153 133.85815206 21.42559814 136.14717102 C20.69034912 136.15651672 19.9551001 136.16586243 19.1975708 136.17549133 C15.81460665 136.2297038 12.43295064 136.31325073 9.05059814 136.39717102 C7.89430908 136.41135071 6.73802002 136.4255304 5.54669189 136.44013977 C-5.0666538 136.7399518 -13.09102586 138.98269856 -20.88690186 146.35420227 C-24.81920407 150.53227337 -27.00539921 154.65566175 -28.57440186 160.14717102 C-28.90440186 160.14717102 -29.23440186 160.14717102 -29.57440186 160.14717102 C-29.66800316 142.45733965 -29.73845823 124.76757289 -29.78165054 107.07754707 C-29.80224199 98.86304044 -29.83029686 90.64868802 -29.87615967 82.4342804 C-29.91613251 75.27137611 -29.94185949 68.10858356 -29.95075583 60.94557083 C-29.955953 57.15567744 -29.96809598 53.3661036 -29.99732208 49.57631302 C-30.02465689 46.00250595 -30.03281088 42.42914728 -30.02683258 38.85524559 C-30.02844202 36.93196235 -30.04986974 35.00872693 -30.07208252 33.08557129 C-30.03199921 24.58229418 -28.75014133 17.56385072 -23.71502686 10.56123352 C-16.60210194 3.83040787 -9.90720427 0.04294738 0 0 Z " fill="#F7B60C" transform="translate(29.57440185546875,47.85282897949219)"/>
<path d="M0 0 C1.1938179 -0.00287018 2.3876358 -0.00574036 3.61763 -0.00869751 C6.12798541 -0.01072978 8.63835695 -0.00525886 11.14868164 0.00732422 C14.98685023 0.02343149 18.82397262 0.00742408 22.66210938 -0.01171875 C25.10807523 -0.009737 27.55404044 -0.00589475 30 0 C31.14385666 -0.00607269 32.28771332 -0.01214539 33.4662323 -0.0184021 C39.11930529 0.03148241 43.48232312 0.08181715 48.30078125 3.3984375 C52.28743142 7.81607687 53.42321512 10.24791786 53.4777832 16.12988281 C53.49061844 17.33163147 53.50345367 18.53338013 53.51667786 19.77154541 C53.52775826 21.72927887 53.52775826 21.72927887 53.5390625 23.7265625 C53.54313803 24.39022575 53.54721355 25.05388901 53.55141258 25.73766327 C53.57227522 29.25235177 53.5865744 32.76700125 53.59594727 36.28173828 C53.6069949 39.90444926 53.641374 43.52654312 53.68111897 47.14903641 C53.70732568 49.94068507 53.71564276 52.73218783 53.71922874 55.52394867 C53.72644182 57.5059027 53.75286656 59.48775684 53.77961731 61.46954346 C53.75270619 72.63992895 53.75270619 72.63992895 49.30078125 77.3984375 C45.47246561 80.76271488 42.24598501 81.51965105 37.22875977 81.60717773 C36.19239883 81.62646835 35.1560379 81.64575897 34.08827209 81.66563416 C29.28373971 81.72398497 24.47935533 81.77281173 19.67456055 81.8034668 C17.16400232 81.82485583 14.65351463 81.85872434 12.14331055 81.90600586 C-3.08094269 82.18978796 -16.36708192 81.48965675 -30.70449829 76.13711548 C-33.42917185 75.12812379 -36.19611342 74.27596194 -38.97265625 73.421875 C-40.67369272 72.87399418 -42.37423411 72.32457332 -44.07421875 71.7734375 C-51.28063325 69.44625997 -58.48201048 67.2810541 -65.82421875 65.41796875 C-70.23393888 63.85419572 -73.70935167 61.72963806 -76.51171875 57.9609375 C-77.69921875 55.3984375 -77.69921875 55.3984375 -78.69921875 50.3984375 C-85.29921875 50.3984375 -91.89921875 50.3984375 -98.69921875 50.3984375 C-98.69921875 57.3284375 -98.69921875 64.2584375 -98.69921875 71.3984375 C-105.29921875 71.3984375 -111.89921875 71.3984375 -118.69921875 71.3984375 C-118.69921875 64.7984375 -118.69921875 58.1984375 -118.69921875 51.3984375 C-125.29921875 51.3984375 -131.89921875 51.3984375 -138.69921875 51.3984375 C-138.69921875 57.9984375 -138.69921875 64.5984375 -138.69921875 71.3984375 C-145.29921875 71.3984375 -151.89921875 71.3984375 -158.69921875 71.3984375 C-158.69921875 64.7984375 -158.69921875 58.1984375 -158.69921875 51.3984375 C-165.29921875 51.3984375 -171.89921875 51.3984375 -178.69921875 51.3984375 C-178.69921875 57.9984375 -178.69921875 64.5984375 -178.69921875 71.3984375 C-185.29921875 71.3984375 -191.89921875 71.3984375 -198.69921875 71.3984375 C-198.69921875 64.7984375 -198.69921875 58.1984375 -198.69921875 51.3984375 C-205.29921875 51.3984375 -211.89921875 51.3984375 -218.69921875 51.3984375 C-218.69921875 57.9984375 -218.69921875 64.5984375 -218.69921875 71.3984375 C-225.29921875 71.3984375 -231.89921875 71.3984375 -238.69921875 71.3984375 C-238.69921875 64.7984375 -238.69921875 58.1984375 -238.69921875 51.3984375 C-245.29921875 51.3984375 -251.89921875 51.3984375 -258.69921875 51.3984375 C-258.69921875 57.9984375 -258.69921875 64.5984375 -258.69921875 71.3984375 C-265.29921875 71.3984375 -271.89921875 71.3984375 -278.69921875 71.3984375 C-278.69921875 64.7984375 -278.69921875 58.1984375 -278.69921875 51.3984375 C-285.29921875 51.3984375 -291.89921875 51.3984375 -298.69921875 51.3984375 C-298.69921875 57.9984375 -298.69921875 64.5984375 -298.69921875 71.3984375 C-305.29921875 71.3984375 -311.89921875 71.3984375 -318.69921875 71.3984375 C-318.69921875 64.7984375 -318.69921875 58.1984375 -318.69921875 51.3984375 C-325.29921875 51.3984375 -331.89921875 51.3984375 -338.69921875 51.3984375 C-338.69921875 57.6684375 -338.69921875 63.9384375 -338.69921875 70.3984375 C-345.29921875 70.3984375 -351.89921875 70.3984375 -358.69921875 70.3984375 C-358.69921875 63.7984375 -358.69921875 57.1984375 -358.69921875 50.3984375 C-365.29921875 50.3984375 -371.89921875 50.3984375 -378.69921875 50.3984375 C-378.69921875 56.9984375 -378.69921875 63.5984375 -378.69921875 70.3984375 C-385.29921875 70.3984375 -391.89921875 70.3984375 -398.69921875 70.3984375 C-398.69921875 63.7984375 -398.69921875 57.1984375 -398.69921875 50.3984375 C-405.29921875 50.3984375 -411.89921875 50.3984375 -418.69921875 50.3984375 C-418.69921875 56.9984375 -418.69921875 63.5984375 -418.69921875 70.3984375 C-425.29921875 70.3984375 -431.89921875 70.3984375 -438.69921875 70.3984375 C-438.69921875 63.7984375 -438.69921875 57.1984375 -438.69921875 50.3984375 C-445.29921875 50.3984375 -451.89921875 50.3984375 -458.69921875 50.3984375 C-458.69921875 37.5284375 -458.69921875 24.6584375 -458.69921875 11.3984375 C-452.09921875 11.3984375 -445.49921875 11.3984375 -438.69921875 11.3984375 C-438.69921875 17.6684375 -438.69921875 23.9384375 -438.69921875 30.3984375 C-432.09921875 30.3984375 -425.49921875 30.3984375 -418.69921875 30.3984375 C-418.69921875 24.1284375 -418.69921875 17.8584375 -418.69921875 11.3984375 C-412.09921875 11.3984375 -405.49921875 11.3984375 -398.69921875 11.3984375 C-398.69921875 17.6684375 -398.69921875 23.9384375 -398.69921875 30.3984375 C-392.09921875 30.3984375 -385.49921875 30.3984375 -378.69921875 30.3984375 C-378.69921875 24.1284375 -378.69921875 17.8584375 -378.69921875 11.3984375 C-372.09921875 11.3984375 -365.49921875 11.3984375 -358.69921875 11.3984375 C-358.69921875 17.6684375 -358.69921875 23.9384375 -358.69921875 30.3984375 C-352.09921875 30.3984375 -345.49921875 30.3984375 -338.69921875 30.3984375 C-338.69921875 24.1284375 -338.69921875 17.8584375 -338.69921875 11.3984375 C-332.09921875 11.3984375 -325.49921875 11.3984375 -318.69921875 11.3984375 C-318.69921875 17.6684375 -318.69921875 23.9384375 -318.69921875 30.3984375 C-312.09921875 30.3984375 -305.49921875 30.3984375 -298.69921875 30.3984375 C-298.73879644 24.51960747 -298.73879644 24.51960747 -298.78930664 18.64086914 C-298.79305298 17.54826782 -298.79305298 17.54826782 -298.796875 16.43359375 C-298.80211182 15.684729 -298.80734863 14.93586426 -298.81274414 14.16430664 C-298.69921875 12.3984375 -298.69921875 12.3984375 -297.69921875 11.3984375 C-296.28351752 11.31192139 -294.86362375 11.29138846 -293.4453125 11.30078125 C-292.67630615 11.30327881 -291.9072998 11.30577637 -291.11499023 11.30834961 C-290.13216064 11.31745361 -289.14933105 11.32655762 -288.13671875 11.3359375 C-283.46515625 11.366875 -283.46515625 11.366875 -278.69921875 11.3984375 C-278.69921875 17.6684375 -278.69921875 23.9384375 -278.69921875 30.3984375 C-272.09921875 30.3984375 -265.49921875 30.3984375 -258.69921875 30.3984375 C-258.73879644 24.51960747 -258.73879644 24.51960747 -258.78930664 18.64086914 C-258.79305298 17.54826782 -258.79305298 17.54826782 -258.796875 16.43359375 C-258.80211182 15.684729 -258.80734863 14.93586426 -258.81274414 14.16430664 C-258.69921875 12.3984375 -258.69921875 12.3984375 -257.69921875 11.3984375 C-256.28351752 11.31192139 -254.86362375 11.29138846 -253.4453125 11.30078125 C-252.67630615 11.30327881 -251.9072998 11.30577637 -251.11499023 11.30834961 C-250.13216064 11.31745361 -249.14933105 11.32655762 -248.13671875 11.3359375 C-243.46515625 11.366875 -243.46515625 11.366875 -238.69921875 11.3984375 C-238.69921875 17.6684375 -238.69921875 23.9384375 -238.69921875 30.3984375 C-232.09921875 30.3984375 -225.49921875 30.3984375 -218.69921875 30.3984375 C-218.73879644 24.51960747 -218.73879644 24.51960747 -218.78930664 18.64086914 C-218.79305298 17.54826782 -218.79305298 17.54826782 -218.796875 16.43359375 C-218.80211182 15.684729 -218.80734863 14.93586426 -218.81274414 14.16430664 C-218.69921875 12.3984375 -218.69921875 12.3984375 -217.69921875 11.3984375 C-216.28351752 11.31192139 -214.86362375 11.29138846 -213.4453125 11.30078125 C-212.67630615 11.30327881 -211.9072998 11.30577637 -211.11499023 11.30834961 C-210.13216064 11.31745361 -209.14933105 11.32655762 -208.13671875 11.3359375 C-203.46515625 11.366875 -203.46515625 11.366875 -198.69921875 11.3984375 C-198.69921875 17.6684375 -198.69921875 23.9384375 -198.69921875 30.3984375 C-192.09921875 30.3984375 -185.49921875 30.3984375 -178.69921875 30.3984375 C-178.73879644 24.51960747 -178.73879644 24.51960747 -178.78930664 18.64086914 C-178.79305298 17.54826782 -178.79305298 17.54826782 -178.796875 16.43359375 C-178.80473022 15.31029663 -178.80473022 15.31029663 -178.81274414 14.16430664 C-178.69921875 12.3984375 -178.69921875 12.3984375 -177.69921875 11.3984375 C-176.28351752 11.31192139 -174.86362375 11.29138846 -173.4453125 11.30078125 C-172.29180298 11.30452759 -172.29180298 11.30452759 -171.11499023 11.30834961 C-170.13216064 11.31745361 -169.14933105 11.32655762 -168.13671875 11.3359375 C-163.46515625 11.366875 -163.46515625 11.366875 -158.69921875 11.3984375 C-158.69921875 17.6684375 -158.69921875 23.9384375 -158.69921875 30.3984375 C-152.09921875 30.3984375 -145.49921875 30.3984375 -138.69921875 30.3984375 C-138.69921875 23.7984375 -138.69921875 17.1984375 -138.69921875 10.3984375 C-132.09921875 10.3984375 -125.49921875 10.3984375 -118.69921875 10.3984375 C-118.69921875 16.9984375 -118.69921875 23.5984375 -118.69921875 30.3984375 C-112.09921875 30.3984375 -105.49921875 30.3984375 -98.69921875 30.3984375 C-98.73879644 24.51960747 -98.73879644 24.51960747 -98.78930664 18.64086914 C-98.79305298 17.54826782 -98.79305298 17.54826782 -98.796875 16.43359375 C-98.80473022 15.31029663 -98.80473022 15.31029663 -98.81274414 14.16430664 C-98.69921875 12.3984375 -98.69921875 12.3984375 -97.69921875 11.3984375 C-96.28351752 11.31192139 -94.86362375 11.29138846 -93.4453125 11.30078125 C-92.16430664 11.30561523 -92.16430664 11.30561523 -90.85742188 11.31054688 C-89.95958984 11.31892578 -89.06175781 11.32730469 -88.13671875 11.3359375 C-87.23501953 11.34044922 -86.33332031 11.34496094 -85.40429688 11.34960938 C-83.16924286 11.36143506 -80.93422273 11.37937112 -78.69921875 11.3984375 C-78.36921875 16.0184375 -78.03921875 20.6384375 -77.69921875 25.3984375 C-76.58546875 23.7896875 -76.58546875 23.7896875 -75.44921875 22.1484375 C-71.11767036 17.15512478 -65.9160282 16.05849364 -59.69921875 14.3984375 C-58.23378438 13.98516151 -56.76897275 13.56967294 -55.3046875 13.15234375 C-49.6881635 11.56199123 -44.05649155 10.02984986 -38.41796875 8.51953125 C-32.1101856 6.82741526 -25.81192325 5.06231803 -19.74967957 2.60971069 C-13.16479869 0.07941314 -6.99537475 -0.0373364 0 0 Z M23.30078125 16.3984375 C23.30078125 32.5684375 23.30078125 48.7384375 23.30078125 65.3984375 C28.87072859 64.47011294 31.83805894 63.70829125 35.30078125 59.3984375 C38.16210387 53.3880615 38.77225382 47.4692911 38.67578125 40.8984375 C38.68738281 40.10824219 38.69898438 39.31804687 38.7109375 38.50390625 C38.68091666 32.38966237 37.9440548 25.68836992 33.99047852 20.76757812 C30.3746091 17.47198318 28.35304763 17.2404819 23.30078125 16.3984375 Z " fill="#FE9A20" transform="translate(458.69921875,302.6015625)"/>
<path d="M0 0 C1.39850341 -0.00461055 2.79700197 -0.01096451 4.19549042 -0.01890898 C8.03368568 -0.0356047 11.87148304 -0.02735501 15.70967972 -0.0149641 C19.85087854 -0.00591678 23.99200876 -0.01988181 28.13319397 -0.03088379 C36.24415664 -0.04867748 44.35497132 -0.04482512 52.46593981 -0.03323323 C59.05804554 -0.0242019 65.65010978 -0.0229736 72.24221992 -0.02732849 C73.64924012 -0.02824789 73.64924012 -0.02824789 75.08468496 -0.02918586 C76.99021865 -0.03046476 78.89575232 -0.03176161 80.80128599 -0.03307623 C98.67312176 -0.04448468 116.54487549 -0.03136449 134.41669781 -0.00987476 C149.75147754 0.00799354 165.08613615 0.00489483 180.4209137 -0.0135498 C198.22698161 -0.03495687 216.03297757 -0.04338294 233.83905655 -0.03110075 C235.73790966 -0.02982655 237.63676279 -0.02856907 239.53561592 -0.02732849 C240.93703363 -0.02640284 240.93703363 -0.02640284 242.3667628 -0.02545848 C248.95042248 -0.02200488 255.53403652 -0.02783423 262.11768913 -0.0372467 C270.14183576 -0.04846637 278.16582587 -0.04542746 286.18995457 -0.02412373 C290.28401478 -0.01361239 294.37781406 -0.00949275 298.47187233 -0.02272034 C302.22052191 -0.03464871 305.96866895 -0.02807481 309.717273 -0.00681013 C311.71403033 -0.00023268 313.71082259 -0.01327633 315.70754331 -0.02703905 C322.44846911 0.03199381 327.16950436 0.11582327 332.45582581 4.50793457 C336.45582581 11.50793457 336.45582581 11.50793457 336.45582581 31.50793457 C217.65582581 31.50793457 98.85582581 31.50793457 -23.54417419 31.50793457 C-23.54417419 10.50793457 -23.54417419 10.50793457 -19.54417419 4.50793457 C-13.96133346 -0.93499184 -7.32362571 -0.05039244 0 0 Z " fill="#FEF2D7" transform="translate(74.54417419433594,153.4920654296875)"/>
<path d="M0 0 C1.1938179 -0.00287018 2.3876358 -0.00574036 3.61763 -0.00869751 C6.12798541 -0.01072978 8.63835695 -0.00525886 11.14868164 0.00732422 C14.98685023 0.02343149 18.82397262 0.00742408 22.66210938 -0.01171875 C25.10807523 -0.009737 27.55404044 -0.00589475 30 0 C31.14385666 -0.00607269 32.28771332 -0.01214539 33.4662323 -0.0184021 C39.11930529 0.03148241 43.48232312 0.08181715 48.30078125 3.3984375 C52.28743142 7.81607687 53.42321512 10.24791786 53.4777832 16.12988281 C53.49703606 17.9325058 53.49703606 17.9325058 53.51667786 19.77154541 C53.52406479 21.07670105 53.53145172 22.38185669 53.5390625 23.7265625 C53.54313803 24.39022575 53.54721355 25.05388901 53.55141258 25.73766327 C53.57227522 29.25235177 53.5865744 32.76700125 53.59594727 36.28173828 C53.6069949 39.90444926 53.641374 43.52654312 53.68111897 47.14903641 C53.70732568 49.94068507 53.71564276 52.73218783 53.71922874 55.52394867 C53.72644182 57.5059027 53.75286656 59.48775684 53.77961731 61.46954346 C53.75270619 72.63992895 53.75270619 72.63992895 49.30078125 77.3984375 C45.47246561 80.76271488 42.24598501 81.51965105 37.22875977 81.60717773 C36.19239883 81.62646835 35.1560379 81.64575897 34.08827209 81.66563416 C29.28373971 81.72398497 24.47935533 81.77281173 19.67456055 81.8034668 C17.16400232 81.82485583 14.65351463 81.85872434 12.14331055 81.90600586 C-3.08094269 82.18978796 -16.36708192 81.48965675 -30.70449829 76.13711548 C-33.42917185 75.12812379 -36.19611342 74.27596194 -38.97265625 73.421875 C-40.67369272 72.87399418 -42.37423411 72.32457332 -44.07421875 71.7734375 C-51.28063325 69.44625997 -58.48201048 67.2810541 -65.82421875 65.41796875 C-70.23393888 63.85419572 -73.70935167 61.72963806 -76.51171875 57.9609375 C-77.69921875 55.3984375 -77.69921875 55.3984375 -78.69921875 50.3984375 C-85.29921875 50.3984375 -91.89921875 50.3984375 -98.69921875 50.3984375 C-98.69921875 57.3284375 -98.69921875 64.2584375 -98.69921875 71.3984375 C-105.29921875 71.3984375 -111.89921875 71.3984375 -118.69921875 71.3984375 C-118.69921875 58.1984375 -118.69921875 44.9984375 -118.69921875 31.3984375 C-112.09921875 31.3984375 -105.49921875 31.3984375 -98.69921875 31.3984375 C-98.73879902 25.19050836 -98.73879902 25.19050836 -98.78930664 18.98266602 C-98.7918042 18.21365967 -98.79430176 17.44465332 -98.796875 16.65234375 C-98.80473022 15.46620483 -98.80473022 15.46620483 -98.81274414 14.25610352 C-98.69921875 12.3984375 -98.69921875 12.3984375 -97.69921875 11.3984375 C-96.28351752 11.31192139 -94.86362375 11.29138846 -93.4453125 11.30078125 C-92.16430664 11.30561523 -92.16430664 11.30561523 -90.85742188 11.31054688 C-89.95958984 11.31892578 -89.06175781 11.32730469 -88.13671875 11.3359375 C-87.23501953 11.34044922 -86.33332031 11.34496094 -85.40429688 11.34960938 C-83.16924286 11.36143506 -80.93422273 11.37937112 -78.69921875 11.3984375 C-78.20421875 18.3284375 -78.20421875 18.3284375 -77.69921875 25.3984375 C-76.95671875 24.3259375 -76.21421875 23.2534375 -75.44921875 22.1484375 C-71.11767036 17.15512478 -65.9160282 16.05849364 -59.69921875 14.3984375 C-58.23378438 13.98516151 -56.76897275 13.56967294 -55.3046875 13.15234375 C-49.6881635 11.56199123 -44.05649155 10.02984986 -38.41796875 8.51953125 C-32.1101856 6.82741526 -25.81192325 5.06231803 -19.74967957 2.60971069 C-13.16479869 0.07941314 -6.99537475 -0.0373364 0 0 Z M23.30078125 16.3984375 C23.30078125 32.5684375 23.30078125 48.7384375 23.30078125 65.3984375 C28.87072859 64.47011294 31.83805894 63.70829125 35.30078125 59.3984375 C38.16210387 53.3880615 38.77225382 47.4692911 38.67578125 40.8984375 C38.68738281 40.10824219 38.69898438 39.31804687 38.7109375 38.50390625 C38.68091666 32.38966237 37.9440548 25.68836992 33.99047852 20.76757812 C30.3746091 17.47198318 28.35304763 17.2404819 23.30078125 16.3984375 Z " fill="#EC7A03" transform="translate(458.69921875,302.6015625)"/>
<path d="M0 0 C1.39921525 -0.00389416 2.79842654 -0.00953552 4.1976285 -0.0167709 C8.03776327 -0.03152731 11.87748807 -0.02134343 15.71760964 -0.00703418 C19.86082746 0.00407074 24.00398755 -0.0078654 28.14720154 -0.01687622 C36.26184614 -0.03081397 44.3763352 -0.02324857 52.4909724 -0.00820064 C61.93934691 0.00865408 71.38768261 0.00544987 80.8360675 0.00170528 C97.69359956 -0.00417428 114.55105695 0.01000204 131.40856934 0.03465271 C147.76894938 0.05857376 164.12922964 0.06565709 180.48962402 0.05516052 C198.30190356 0.04375294 216.11413694 0.04181928 233.92641592 0.05625862 C235.82553196 0.05778447 237.72464799 0.05930483 239.62376404 0.06081963 C241.02539281 0.06195635 241.02539281 0.06195635 242.45533732 0.06311603 C249.04246187 0.06786009 255.62956582 0.06600656 262.21669006 0.06175423 C270.24340765 0.05682911 278.27003086 0.062805 286.29672682 0.08264852 C290.39264612 0.0925247 294.48842169 0.09762215 298.58434868 0.08975601 C302.33348951 0.08270314 306.08234022 0.08949441 309.83144277 0.10735964 C311.83092215 0.1133247 313.83042867 0.10457497 315.8298955 0.09531313 C317.01901269 0.10375307 318.20812989 0.11219301 319.43328094 0.12088871 C320.45755172 0.12191784 321.4818225 0.12294697 322.53713179 0.12400728 C327.29078084 0.73976597 330.52634909 2.50364048 333.76159668 6.00120544 C336.88566312 10.62945203 336.57990804 14.94488344 336.54675293 20.32542419 C336.54463051 21.61752556 336.54463051 21.61752556 336.54246521 22.93572998 C336.53686808 25.68675714 336.52431614 28.43770289 336.51159668 31.18870544 C336.50658131 33.05393864 336.50201847 34.91917312 336.4979248 36.78440857 C336.48775052 41.35673079 336.46817455 45.92887699 336.44909668 50.50120544 C329.84909668 50.50120544 323.24909668 50.50120544 316.44909668 50.50120544 C316.19909668 41.43870544 316.19909668 41.43870544 316.15124512 38.6259613 C315.91556632 32.82144073 314.99248451 29.1682515 311.44909668 24.50120544 C305.6459055 20.33169327 299.07664779 21.07622085 292.23745728 21.10247803 C290.87521395 21.09703662 289.51297533 21.09028424 288.15074432 21.08233613 C284.41312749 21.06431414 280.67570937 21.06486744 276.93805933 21.06846559 C272.90537462 21.06908939 268.87275661 21.05246982 264.84010315 21.03794861 C257.85514965 21.01515455 250.87024606 21.00327611 243.88525772 20.99881935 C233.78616095 20.99235986 223.6871544 20.969426 213.58809398 20.94247606 C197.20290705 20.8991984 180.81772391 20.86923723 164.43249512 20.84764099 C148.51613498 20.82663424 132.59980592 20.79936179 116.68347168 20.76365662 C115.21175387 20.76035838 115.21175387 20.76035838 113.71030439 20.75699351 C108.78816852 20.74592393 103.86603294 20.73473111 98.94389749 20.72347701 C58.1123245 20.63027804 17.28073457 20.55868649 -23.55090332 20.50120544 C-23.59497796 18.90510076 -23.62638765 17.30864307 -23.65246582 15.71214294 C-23.67131836 14.82317322 -23.6901709 13.93420349 -23.70959473 13.01829529 C-23.40098092 8.1232056 -20.68994305 5.55671966 -17.24939728 2.36846828 C-12.15090204 -0.8967634 -5.8221299 -0.04310077 0 0 Z " fill="#FED999" transform="translate(94.5509033203125,133.49879455566406)"/>
<path d="M0 0 C0.79075928 0.00523682 1.58151855 0.01047363 2.39624023 0.01586914 C3.16524658 0.0183667 3.93425293 0.02086426 4.7265625 0.0234375 C5.70939209 0.0325415 6.69222168 0.04164551 7.70483398 0.05102539 C10.81920898 0.07165039 13.93358398 0.09227539 17.14233398 0.11352539 C17.14233398 6.38352539 17.14233398 12.65352539 17.14233398 19.11352539 C23.74233398 19.11352539 30.34233398 19.11352539 37.14233398 19.11352539 C37.14233398 32.64352539 37.14233398 46.17352539 37.14233398 60.11352539 C30.54233398 60.11352539 23.94233398 60.11352539 17.14233398 60.11352539 C17.14233398 53.51352539 17.14233398 46.91352539 17.14233398 40.11352539 C10.54233398 40.11352539 3.94233398 40.11352539 -2.85766602 40.11352539 C-2.85766602 46.71352539 -2.85766602 53.31352539 -2.85766602 60.11352539 C-9.45766602 60.11352539 -16.05766602 60.11352539 -22.85766602 60.11352539 C-22.85766602 46.91352539 -22.85766602 33.71352539 -22.85766602 20.11352539 C-16.25766602 20.11352539 -9.65766602 20.11352539 -2.85766602 20.11352539 C-2.89724629 13.90559625 -2.89724629 13.90559625 -2.94775391 7.69775391 C-2.95025146 6.92874756 -2.95274902 6.15974121 -2.95532227 5.36743164 C-2.96317749 4.18129272 -2.96317749 4.18129272 -2.97119141 2.97119141 C-2.81664371 0.44225938 -2.52893203 0.15454769 0 0 Z " fill="#FE9A20" transform="translate(202.857666015625,313.886474609375)"/>
<path d="M0 0 C0 16.17 0 32.34 0 49 C-11.44444444 49 -11.44444444 49 -16 45 C-21.43434336 39.00348319 -20.25235102 31.25991091 -20.3125 23.625 C-20.35600586 21.79582031 -20.35600586 21.79582031 -20.40039062 19.9296875 C-20.4788217 8.87693918 -20.4788217 8.87693918 -16 4 C-14.9790625 2.824375 -14.9790625 2.824375 -13.9375 1.625 C-11 0 -11 0 0 0 Z " fill="#FEC733" transform="translate(482,319)"/>
<path d="M0 0 C6.6 0 13.2 0 20 0 C20 6.6 20 13.2 20 20 C26.6 20 33.2 20 40 20 C40 20.33 40 20.66 40 21 C33.4 21 26.8 21 20 21 C20 27.6 20 34.2 20 41 C13.4 41 6.8 41 0 41 C0 27.47 0 13.94 0 0 Z " fill="#FE9B21" transform="translate(320,313)"/>
<path d="M0 0 C1.18613892 0.00785522 1.18613892 0.00785522 2.39624023 0.01586914 C3.16524658 0.0183667 3.93425293 0.02086426 4.7265625 0.0234375 C5.70939209 0.0325415 6.69222168 0.04164551 7.70483398 0.05102539 C12.37639648 0.08196289 12.37639648 0.08196289 17.14233398 0.11352539 C17.14233398 6.38352539 17.14233398 12.65352539 17.14233398 19.11352539 C23.74233398 19.11352539 30.34233398 19.11352539 37.14233398 19.11352539 C37.14233398 19.44352539 37.14233398 19.77352539 37.14233398 20.11352539 C30.54233398 20.11352539 23.94233398 20.11352539 17.14233398 20.11352539 C17.14233398 26.71352539 17.14233398 33.31352539 17.14233398 40.11352539 C10.54233398 40.11352539 3.94233398 40.11352539 -2.85766602 40.11352539 C-2.88057335 34.5775855 -2.90050092 29.04180884 -2.91259766 23.50585938 C-2.91763846 21.62108809 -2.924471 19.73632074 -2.93310547 17.8515625 C-2.94518219 15.14850903 -2.9508967 12.44550708 -2.95532227 9.74243164 C-2.96048355 8.89451553 -2.96564484 8.04659943 -2.97096252 7.17298889 C-2.97115796 5.15281471 -2.91972812 3.13274605 -2.85766602 1.11352539 C-1.85766602 0.11352539 -1.85766602 0.11352539 0 0 Z " fill="#FE9A21" transform="translate(162.857666015625,313.886474609375)"/>
<path d="M0 0 C6.6 0 13.2 0 20 0 C20 13.2 20 26.4 20 40 C13.4 40 6.8 40 0 40 C0 26.8 0 13.6 0 0 Z " fill="#E97500" transform="translate(300,334)"/>
<path d="M0 0 C6.6 0 13.2 0 20 0 C20 13.2 20 26.4 20 40 C13.4 40 6.8 40 0 40 C0 26.8 0 13.6 0 0 Z " fill="#E97501" transform="translate(260,334)"/>
<path d="M0 0 C6.6 0 13.2 0 20 0 C20 13.2 20 26.4 20 40 C13.4 40 6.8 40 0 40 C0 26.8 0 13.6 0 0 Z " fill="#E97601" transform="translate(220,334)"/>
<path d="M0 0 C6.6 0 13.2 0 20 0 C20 13.2 20 26.4 20 40 C13.4 40 6.8 40 0 40 C0 26.8 0 13.6 0 0 Z " fill="#E97601" transform="translate(180,334)"/>
<path d="M0 0 C6.6 0 13.2 0 20 0 C20 13.2 20 26.4 20 40 C13.4 40 6.8 40 0 40 C0 26.8 0 13.6 0 0 Z " fill="#E97601" transform="translate(140,334)"/>
<path d="M0 0 C6.6 0 13.2 0 20 0 C20 12.87 20 25.74 20 39 C13.4 39 6.8 39 0 39 C0 26.13 0 13.26 0 0 Z " fill="#E97500" transform="translate(100,334)"/>
<path d="M0 0 C6.6 0 13.2 0 20 0 C20 12.87 20 25.74 20 39 C13.4 39 6.8 39 0 39 C0 26.13 0 13.26 0 0 Z " fill="#E97500" transform="translate(60,334)"/>
<path d="M0 0 C6.6 0 13.2 0 20 0 C20 12.87 20 25.74 20 39 C13.4 39 6.8 39 0 39 C0 26.13 0 13.26 0 0 Z " fill="#E97500" transform="translate(20,334)"/>
</svg>
